<svg width="48" height="48" viewBox="0 0 48 48" fill="none" xmlns="http://www.w3.org/2000/svg">
<rect width="48" height="48" rx="24" fill="url(#paint0_linear)"/>
<path fill-rule="evenodd" clip-rule="evenodd" d="M20.0338 32.3213H16.9325C16.24 32.3213 15.6788 31.76 15.6788 31.0675V27.965C15.6788 27.6325 15.5463 27.3138 15.3113 27.0788L13.1175 24.885C12.6275 24.395 12.6275 23.6013 13.1175 23.1125L15.3338 20.8963C15.555 20.675 15.6788 20.3763 15.6788 20.0638V16.9325C15.6788 16.24 16.24 15.6788 16.9325 15.6788H20.035C20.3675 15.6788 20.6863 15.5463 20.9213 15.3113L23.115 13.1175C23.605 12.6275 24.3988 12.6275 24.8875 13.1175L27.0813 15.3113C27.3163 15.5463 27.635 15.6788 27.9675 15.6788H31.07C31.7625 15.6788 32.3238 16.24 32.3238 16.9325V20.035C32.3238 20.3675 32.4563 20.6863 32.6913 20.9213L34.885 23.115C35.375 23.605 35.375 24.3988 34.885 24.8875L32.6913 27.0813C32.4563 27.3163 32.3238 27.635 32.3238 27.9675V31.07C32.3238 31.7625 31.7625 32.3238 31.07 32.3238H27.9675C27.635 32.3238 27.3163 32.4563 27.0813 32.6913L24.8875 34.885C24.3975 35.375 23.6038 35.375 23.115 34.885L20.9213 32.6913C20.685 32.4525 20.3663 32.3213 20.0338 32.3213Z" stroke="white" stroke-width="2" stroke-linecap="round" stroke-linejoin="round"/>
<path d="M27.75 22.125L23.0625 26.8125L20.25 24" stroke="white" stroke-width="2" stroke-linecap="round" stroke-linejoin="round"/>
<defs>
<linearGradient id="paint0_linear" x1="0.118227" y1="23.2" x2="48" y2="23.2" gradientUnits="userSpaceOnUse">
<stop stop-color="#FF8F00"/>
<stop offset="1" stop-color="#E35205"/>
</linearGradient>
</defs>
</svg>
