<svg width="24" height="24" viewBox="0 0 24 24" fill="none" xmlns="http://www.w3.org/2000/svg">
<path fill-rule="evenodd" clip-rule="evenodd" d="M5.08001 9.8118C4.17765 10.7142 4.17765 12.1772 5.08001 13.0796L9.62157 17.6211C9.63244 17.6324 9.64345 17.6437 9.65459 17.6548C10.557 18.5572 12.02 18.5572 12.9223 17.6548L19.4578 11.1193C20.3602 10.2169 20.3602 8.75391 19.4578 7.85155C18.5555 6.94918 17.0925 6.94918 16.1901 7.85155L11.2888 12.7528L8.34776 9.81181C7.4454 8.90944 5.98238 8.90944 5.08001 9.8118Z" fill="#6B6B75"/>
<path d="M4 1H20V-1H4V1ZM23 4V20H25V4H23ZM20 23H4V25H20V23ZM1 20V4H-1V20H1ZM4 23C2.34315 23 1 21.6569 1 20H-1C-1 22.7614 1.23858 25 4 25V23ZM23 20C23 21.6569 21.6569 23 20 23V25C22.7614 25 25 22.7614 25 20H23ZM20 1C21.6569 1 23 2.34315 23 4H25C25 1.23858 22.7614 -1 20 -1V1ZM4 -1C1.23858 -1 -1 1.23858 -1 4H1C1 2.34315 2.34315 1 4 1V-1Z" fill="#BFBFC9"/>
</svg>
