<svg width="24" height="24" viewBox="0 0 24 24" fill="none" xmlns="http://www.w3.org/2000/svg">
<path fill-rule="evenodd" clip-rule="evenodd" d="M5.07999 9.81183C4.17762 10.7142 4.17762 12.1772 5.07999 13.0796L9.62155 17.6211C9.63242 17.6325 9.64343 17.6437 9.65457 17.6548C10.5569 18.5572 12.02 18.5572 12.9223 17.6548L19.4578 11.1193C20.3602 10.217 20.3602 8.75393 19.4578 7.85157C18.5555 6.9492 17.0924 6.94921 16.1901 7.85157L11.2888 12.7529L8.34774 9.81183C7.44538 8.90946 5.98235 8.90946 5.07999 9.81183Z" fill="#E35205"/>
<path d="M4 1H20V-1H4V1ZM23 4V20H25V4H23ZM20 23H4V25H20V23ZM1 20V4H-1V20H1ZM4 23C2.34315 23 1 21.6569 1 20H-1C-1 22.7614 1.23858 25 4 25V23ZM23 20C23 21.6569 21.6569 23 20 23V25C22.7614 25 25 22.7614 25 20H23ZM20 1C21.6569 1 23 2.34315 23 4H25C25 1.23858 22.7614 -1 20 -1V1ZM4 -1C1.23858 -1 -1 1.23858 -1 4H1C1 2.34315 2.34315 1 4 1V-1Z" fill="#E35205"/>
</svg>
