<svg width="198" height="43" viewBox="0 0 198 43" fill="none" xmlns="http://www.w3.org/2000/svg">
<path d="M116.984 26.8465H121.551V7.67029H108.162V9.98466C108.162 18.3329 107.155 21.4739 104.06 22.6311V26.7639C105.221 26.5986 112.341 25.3587 112.418 12.9603V11.7204H117.139V26.8465H116.984Z" fill="white"/>
<path d="M91.4446 26.8465H96.0108V11.8858H104.292V7.67029H91.4446V26.8465Z" fill="white"/>
<path d="M135.404 7.505H130.915L123.408 26.8465H128.206L129.6 23.2923H136.642L138.035 26.8465H142.911L135.404 7.505ZM130.915 19.5728L133.16 13.5389L135.404 19.5728H130.915Z" fill="white"/>
<path d="M166.671 7.67029H162.105V26.8465H166.439L174.41 15.6879V26.8465H178.899V7.67029H174.565L166.671 19.0768V7.67029Z" fill="white"/>
<path d="M196.932 19.1595V15.44H187.567V12.2164H197.783V7.67029H183.078V26.8465H197.938V22.7137H187.567V19.1595H196.932Z" fill="white"/>
<path d="M79.6034 7.3397C76.4302 7.3397 73.6441 8.99282 71.864 11.5552C69.8518 14.4481 67.2204 22.3831 61.8029 22.3831C58.3975 22.3831 56.5401 19.6555 56.7723 16.8452C57.0045 13.9522 59.3262 11.8031 61.9576 12.0511C63.4281 12.1338 64.6664 12.9603 65.5177 14.2002L68.2265 10.2327C66.6786 8.57954 64.6664 7.50501 62.3446 7.3397C57.1592 6.92642 52.7478 11.0592 52.3608 16.5972C51.9739 22.1352 55.8436 26.8466 61.0289 27.2598C61.3385 27.2598 61.7255 27.2598 62.035 27.2598H62.1124C64.2794 27.2598 66.756 26.268 68.3813 24.9455C69.6196 23.9536 70.5483 22.8791 71.3223 21.8045C72.8701 25.0281 76.1206 27.2598 79.7581 27.2598C84.9435 27.2598 89.1228 22.7964 89.1228 17.2584C88.968 11.8031 84.7887 7.3397 79.6034 7.3397ZM80.9964 22.2178C80.5321 22.3831 80.0677 22.4658 79.526 22.4658C77.5137 22.4658 75.8111 21.1433 75.0372 19.3248C74.805 18.6636 74.6502 18.0023 74.6502 17.3411C74.6502 16.5972 74.805 15.9359 75.0372 15.3573C75.8111 13.4563 77.5137 12.2164 79.526 12.2164C79.9903 12.2164 80.5321 12.2991 80.9964 12.4644C83.0087 13.1256 84.4018 15.0267 84.4018 17.4238C84.4792 19.6555 83.0087 21.5566 80.9964 22.2178Z" fill="white"/>
<path d="M156.223 20.8953L155.836 21.3086C154.907 22.2178 153.746 22.6311 152.508 22.6311C149.722 22.6311 147.477 20.2341 147.477 17.2585C147.477 14.2828 149.722 11.8858 152.508 11.8858C153.901 11.8858 155.294 12.5471 156.223 13.7042L156.378 13.5389L158.622 10.2327C156.919 8.41425 154.598 7.42236 152.276 7.42236C147.168 7.42236 143.066 11.8858 143.066 17.2585C143.066 22.7138 147.245 27.0945 152.276 27.0945C154.83 27.0945 157.306 25.9374 159.086 23.7883L156.223 20.8953Z" fill="white"/>
<path d="M120.003 40.8155C118.61 40.8155 117.604 39.5756 117.604 38.0878C117.604 36.6 118.61 35.3602 119.925 35.3602C120.777 35.3602 121.396 35.7734 121.938 36.352L122.557 35.6081C121.938 34.9469 121.164 34.3683 119.925 34.3683C117.991 34.3683 116.597 36.0214 116.597 38.0052C116.597 39.9889 118.068 41.642 119.925 41.642C121.164 41.642 121.938 41.0634 122.634 40.3195L122.015 39.6583C121.473 40.3195 120.854 40.8155 120.003 40.8155Z" fill="white"/>
<path d="M129.135 34.5336H123.485V35.5254H125.807V41.5593H126.813V35.5254H129.135V34.5336Z" fill="white"/>
<path d="M134.088 34.4509C132.85 34.4509 132.076 35.1948 131.612 36.0214V34.6162H130.606V43.7911H131.612V40.3195C132.154 41.0634 132.928 41.8073 134.088 41.8073C135.636 41.8073 137.184 40.4848 137.184 38.1705C137.184 35.7734 135.636 34.4509 134.088 34.4509ZM133.856 40.7328C132.618 40.7328 131.457 39.6583 131.457 38.0051C131.457 36.352 132.618 35.2775 133.856 35.2775C135.095 35.2775 136.178 36.352 136.178 38.0051C136.178 39.7409 135.172 40.7328 133.856 40.7328Z" fill="white"/>
<path d="M141.673 34.4509C140.744 34.4509 140.048 34.6989 139.274 35.0295L139.583 35.8561C140.202 35.5255 140.822 35.3601 141.596 35.3601C142.834 35.3601 143.53 36.0214 143.53 37.2612V37.5092C142.911 37.3439 142.369 37.1786 141.518 37.1786C139.893 37.1786 138.732 37.9225 138.732 39.4929C138.732 40.9808 139.97 41.7247 141.209 41.7247C142.37 41.7247 143.143 41.1461 143.53 40.5675V41.642H144.459V37.2612C144.459 36.352 144.227 35.6908 143.763 35.1948C143.298 34.6989 142.602 34.4509 141.673 34.4509ZM143.53 38.997C143.53 40.0715 142.524 40.8981 141.363 40.8981C140.512 40.8981 139.738 40.4022 139.738 39.4929C139.738 38.6664 140.435 38.0878 141.673 38.0878C142.447 38.0878 143.066 38.2531 143.608 38.4184V38.997H143.53Z" fill="white"/>
<path d="M149.103 37.2612L147.168 34.5336H146.084L148.561 38.0051L145.93 41.5593H147.091L149.103 38.6664L151.115 41.5593H152.276L149.645 38.0051L152.121 34.5336H151.038L149.103 37.2612Z" fill="white"/>
<path d="M156.378 34.4509C154.365 34.4509 152.972 36.104 152.972 38.0878C152.972 40.0715 154.365 41.7247 156.378 41.7247C158.39 41.7247 159.783 40.0715 159.783 38.0878C159.783 36.104 158.313 34.4509 156.378 34.4509ZM156.378 40.8155C154.985 40.8155 153.979 39.5756 153.979 38.0878C153.979 36.6 154.985 35.3601 156.378 35.3601C157.771 35.3601 158.777 36.6 158.777 38.0878C158.777 39.5756 157.771 40.8155 156.378 40.8155Z" fill="white"/>
<path d="M165.742 37.9225C166.284 37.6745 166.826 37.2612 166.826 36.352C166.826 35.2775 165.975 34.6162 164.659 34.6162H161.486V41.642H164.736C166.207 41.642 167.135 40.8981 167.135 39.7409C167.135 38.6664 166.516 38.1704 165.742 37.9225ZM162.492 35.4428H164.504C165.355 35.4428 165.82 35.8561 165.82 36.4346C165.82 37.1786 165.278 37.5918 164.504 37.5918H162.492V35.4428ZM164.659 40.6501H162.492V38.4184H164.581C165.665 38.4184 166.207 38.8317 166.207 39.4929C166.129 40.2368 165.588 40.6501 164.659 40.6501Z" fill="white"/>
<path d="M171.392 34.4509C170.463 34.4509 169.767 34.6989 168.993 35.0295L169.302 35.8561C169.922 35.5255 170.541 35.3601 171.315 35.3601C172.553 35.3601 173.25 36.0214 173.25 37.2612V37.5092C172.63 37.3439 172.089 37.1786 171.237 37.1786C169.612 37.1786 168.451 37.9225 168.451 39.4929C168.451 40.9808 169.689 41.7247 170.928 41.7247C172.089 41.7247 172.863 41.1461 173.25 40.5675V41.642H174.178V37.2612C174.178 36.352 173.946 35.6908 173.482 35.1948C173.017 34.6989 172.321 34.4509 171.392 34.4509ZM173.25 38.997C173.25 40.0715 172.243 40.8981 171.082 40.8981C170.231 40.8981 169.457 40.4022 169.457 39.4929C169.457 38.6664 170.154 38.0878 171.392 38.0878C172.166 38.0878 172.785 38.2531 173.327 38.4184V38.997H173.25Z" fill="white"/>
<path d="M177.197 34.5336H176.268V41.5593H177.197V38.5011H180.989V41.5593H181.995V34.5336H180.989V37.5918H177.197V34.5336Z" fill="white"/>
<path d="M185.091 41.5593L188.96 36.0214V41.5593H189.967V34.5336H189.038L185.091 40.0715V34.5336H184.162V41.5593H185.091Z" fill="white"/>
<path d="M194.842 34.4509C193.062 34.4509 191.669 36.104 191.669 38.0878C191.669 40.2369 193.14 41.7247 194.92 41.7247C196.158 41.7247 196.932 41.2287 197.629 40.4022L197.009 39.8236C196.468 40.4022 195.848 40.8155 194.92 40.8155C193.759 40.8155 192.753 39.9889 192.598 38.5011H197.783C197.783 38.3358 197.783 38.2531 197.783 38.1705C197.938 36.1041 196.777 34.4509 194.842 34.4509ZM192.753 37.6745C192.907 36.352 193.759 35.3601 194.842 35.3601C196.158 35.3601 196.855 36.4347 196.932 37.6745H192.753Z" fill="white"/>
<path d="M31.8515 0.0659376C29.0654 0.0659376 26.2792 0.809841 23.88 2.29765C21.4808 0.809841 18.6946 -0.0167236 15.9085 -0.0167236C7.0856 -0.0167236 -0.112 7.67031 -0.112 17.0931C-0.112 26.5159 7.0856 34.2029 15.9085 34.2029C18.6946 34.2029 21.4808 33.3764 23.88 31.8886C26.2792 33.3764 29.0654 34.1203 31.8515 34.1203C40.6744 34.1203 47.872 26.4333 47.872 17.0105C47.872 7.67031 40.6744 0.0659376 31.8515 0.0659376ZM10.8779 17.0931C10.6457 17.837 10.5683 18.5809 10.5683 19.3248C10.5683 23.375 13.664 26.6812 17.4563 26.6812C19.9329 26.6812 22.1773 25.2761 23.4156 23.0444L23.493 22.9617C23.5704 22.7964 23.6478 22.6311 23.7252 22.4658L27.9045 13.7869L27.9818 13.6215C28.4462 12.7123 29.2975 12.1337 30.3037 12.1337C31.6967 12.1337 32.8576 13.3736 32.8576 14.8614V14.9441V15.0267C32.8576 16.1839 32.3159 18.6636 28.8332 22.3831C24.4217 27.1772 20.3199 28.665 20.3199 28.7476C18.9268 29.4089 17.3789 29.6569 15.8311 29.6569C9.33001 29.6569 4.06725 24.0362 4.06725 17.0931C4.06725 10.15 9.33001 4.52937 15.8311 4.52937C17.0694 4.52937 18.2303 4.69469 19.3912 5.10797C14.9797 8.91016 12.1162 12.9603 10.8779 17.0931ZM36.8047 17.1758C37.0369 16.4319 37.1143 15.688 37.1143 14.8614C37.1143 10.8112 34.0186 7.505 30.2263 7.505C27.8271 7.505 25.5053 8.91015 24.267 11.1419L24.1896 11.3898C24.1122 11.4725 24.0348 11.6378 24.0348 11.7205L19.7007 20.73C19.2364 21.6392 18.3851 22.1351 17.4563 22.1351C16.0632 22.1351 14.9023 20.8953 14.9023 19.4075V19.3248C14.9023 18.1676 15.5215 15.688 18.9268 11.8858C23.3382 7.09172 27.3627 5.68656 27.4401 5.68656C28.9106 5.02531 30.3811 4.69469 32.0063 4.69469C38.5074 4.69469 43.7701 10.3153 43.7701 17.2584C43.7701 24.2015 38.5074 29.8222 32.0063 29.8222C30.768 29.8222 29.5297 29.6569 28.3688 29.2436C32.7802 25.3587 35.6438 21.3912 36.8047 17.1758Z" fill="white"/>
</svg>
